<svg width="36" height="36" viewBox="0 0 36 36" fill="none" xmlns="http://www.w3.org/2000/svg">
<g id="icons8-linkedin 1" clip-path="url(#clip0_1165_1057)">
<path id="Vector" d="M14.3319 11.5186L16.4969 12.9955L11.4757 20.3567L9.31063 18.8799L14.3319 11.5186ZM15.9986 11.3866L15.9865 11.3783C15.3404 10.9376 15.251 10.1711 15.6613 9.56965C16.0804 8.9552 16.8303 8.78144 17.488 9.2301C18.1466 9.67935 18.2334 10.4238 17.8264 11.0465C17.4164 11.6475 16.6698 11.8444 15.9986 11.3866ZM19.7029 25.9686L17.5379 24.4918L20.2254 20.5518C20.8746 19.6001 20.7872 18.5887 19.9355 18.0077C19.2855 17.5644 18.635 17.7628 18.1756 18.0699C18.0098 18.1789 17.7425 18.6108 17.5981 18.8225L14.9398 22.7196L12.7747 21.2428L17.796 13.8816L19.961 15.3584L19.1883 16.4912C19.8302 16.2209 20.7621 15.9048 22.0126 16.7578C23.562 17.8147 24.0592 19.5814 22.5752 21.7569L19.7029 25.9686Z" fill="#F8F5FF"/>
</g>
<defs>
<clipPath id="clip0_1165_1057">
<rect width="25.1596" height="25.1596" fill="white" transform="translate(14.418 0.22998) rotate(34.2986)"/>
</clipPath>
</defs>
</svg>
