<svg width="43" height="44" viewBox="0 0 43 44" fill="none" xmlns="http://www.w3.org/2000/svg">
<g id="icons8-telegram-app-480 1">
<path id="Vector" d="M29.591 20.891L20.8228 29.5436C20.8228 29.5436 20.4274 29.9427 19.8614 29.5566C19.5606 29.3514 19.5031 29.1025 19.5031 29.1025L17.6644 22.6968L16.3042 20.2379L14.1264 17.7157C14.1264 17.7157 13.7461 17.2558 14.0132 16.8642C14.2358 16.5378 14.8291 16.7146 14.8291 16.7146L28.9757 19.8851C28.9755 19.8843 29.3993 19.9943 29.647 20.164C29.7994 20.268 29.9288 20.4519 29.7952 20.6477C29.7062 20.7782 29.591 20.891 29.591 20.891Z" fill="white"/>
<path id="Vector_2" d="M18.3507 25.087L15.36 25.6285C15.36 25.6285 15.2413 25.6355 15.1356 25.5672C15.0988 25.5437 15.0641 25.5116 15.0365 25.4668L17.6645 22.6954L18.3507 25.087Z" fill="#B0BEC5"/>
<path id="Vector_3" d="M26.3361 21.1163C26.3263 20.9412 26.1776 20.8092 26.0032 20.818L16.3 20.2415C16.3 20.2415 15.3011 24.0681 15.1054 24.7151C14.9099 25.3629 15.0361 25.4673 15.0361 25.4673L17.664 22.696L26.0377 21.4483C26.2121 21.4395 26.345 21.2906 26.3361 21.1163Z" fill="#CFD8DC"/>
</g>
</svg>
