<svg width="30" height="30" viewBox="0 0 30 30" fill="none" xmlns="http://www.w3.org/2000/svg">
<g id="icons8-twitter 1" clip-path="url(#clip0_1305_13070)">
<path id="Vector" d="M24.3888 15.114C23.7745 15.0012 23.172 14.7945 22.5917 14.4954C23.3563 14.5435 24.1264 14.3137 24.7381 13.8391C24.0253 13.7902 23.3115 13.6247 22.6326 13.3308C22.4999 12.4958 22.0314 11.7142 21.2739 11.1976C19.819 10.2052 17.8424 10.5697 16.8592 12.0111C16.7201 12.215 16.6085 12.43 16.5218 12.6535C14.4079 11.0507 13.1764 8.6859 12.9547 6.22099C12.4633 6.45115 12.0267 6.8154 11.7015 7.29217C11.0835 8.19829 11.0033 9.31246 11.3902 10.265C10.9673 9.95729 10.6428 9.55982 10.4182 9.1245C10.4129 9.13234 10.4048 9.14411 10.3973 9.15516C9.53355 10.4214 9.72254 12.0954 10.7627 13.1566C10.5016 13.0668 10.2462 12.9417 10.0066 12.7783C9.83649 12.6623 9.68381 12.5299 9.54304 12.3915C9.17235 13.655 9.62888 15.0747 10.7657 15.8831C9.38749 15.9671 7.96651 15.6113 6.73197 14.7692C6.51872 14.6237 6.31838 14.4693 6.12929 14.3037C6.79197 15.8379 7.8817 17.2156 9.36837 18.2296C14.2128 21.5341 19.5766 19.3637 21.9307 15.9125C22.0078 15.7994 22.0811 15.6843 22.1517 15.5694C22.9178 15.557 23.6778 15.4003 24.3888 15.114Z" fill="#F8F5FF"/>
</g>
<defs>
<clipPath id="clip0_1305_13070">
<rect width="20.7197" height="20.7197" fill="white" transform="translate(12.4351 0.46582) rotate(34.2986)"/>
</clipPath>
</defs>
</svg>
